Space Chimps (2008) 1080P       
 

Verenigde Staten
Animatie / Avontuur
81 minuten

geregisseerd door Kirk De Micco
met de stemmen van Andy Samberg, Cheryl Hines en Patrick Warburton

Chimpansee Ham III, kleinzoon van Ham, de beroemde aap die als eerste de ruimte in ging, gaat samen met zijn maatje met een ruimteschip de ruimte in. Ze komen terecht op een vreemde planeet waar ze een avontuur beleven om de inwoners te redden van een wrede leider.


English

Ham III, the grandson of the first chimp astronaut, is blasted off into space by an opportunity-seeking senator. Soon, the fun-loving chimp has to get serious about the mission at hand: Rid a far-away planet of their nefarious leader. Fortunately for Ham III, two of his simian peers are along for the ride. 


Spotinformatie 
Categorie : Beeld 
Formaat : x264HD 
Bron : Retail
Audio : English, Dutch 
Ondertitels : Nederlands (instelbaar)
Engels (instelbaar)

Format                           : Matroska
File size                        : 4.73 GiB
Duration                         : 1h 20mn
Overall bit rate                 : 8 405 Kbps
Movie name                       : Space Chimps (2008) 1080P.X264.Bradje
Encoded date                     : UTC 2010-10-04 06:57:41
Writing application              : mkvmerge v3.3.0 ('Language') built on Mar 24 2010 14:59:24
Writing library                  : libebml v0.8.0 + libmatroska v0.9.0

Video
ID                               : 1
Format                           : AVC
Format/Info                      : Advanced Video Codec
Format profile                   : High@L4.1
Format settings, CABAC           : Yes
Format settings, ReFrames        : 5 frames
Muxing mode                      : Container profile=Unknown@4.1
Codec ID                         : V_MPEG4/ISO/AVC
Duration                         : 1h 20mn
Bit rate                         : 5 809 Kbps
Width                            : 1 920 pixels
Height                           : 816 pixels
Display aspect ratio             : 2.35:1
Frame rate                       : 23.976 fps
Color space                      : YUV
Chroma subsampling               : 4:2:0
Bit depth                        : 8 bits
Scan type                        : Progressive
Bits/(Pixel*Frame)               : 0.155
Stream size                      : 3.18 GiB (67%)
Title                            : x264
Writing library                  : x264 core 65 r1072+1 ac1f3c1
Encoding settings                : cabac=1 / ref=5 / deblock=1:-3:-3 / analyse=0x3:0x113 / me=umh / subme=9 / psy_rd=1.0:0.0 / mixed_ref=1 / me_range=24 / chroma_me=1 / trellis=1 / 8x8dct=1 / cqm=0 / deadzone=8,6 / chroma_qp_offset=-2 / threads=6 / nr=0 / decimate=1 / mbaff=0 / bframes=3 / b_pyramid=1 / b_adapt=1 / b_bias=0 / direct=1 / wpredb=1 / keyint=250 / keyint_min=25 / scenecut=40(pre) / rc=2pass / bitrate=5809 / ratetol=1.0 / qcomp=0.60 / qpmin=10 / qpmax=51 / qpstep=4 / cplxblur=20.0 / qblur=0.5 / vbv_maxrate=50000 / vbv_bufsize=40000 / ip_ratio=1.40 / pb_ratio=1.30 / aq=1:0.70
Language                         : English

Audio #1
ID                               : 2
Format                           : DTS
Format/Info                      : Digital Theater Systems
Codec ID                         : A_DTS
Duration                         : 1h 20mn
Bit rate mode                    : Constant
Bit rate                         : 1 510 Kbps
Channel(s)                       : 6 channels
Channel positions                : Front: L C R, Side: L R, LFE
Sampling rate                    : 48.0 KHz
Bit depth                        : 16 bits
Stream size                      : 871 MiB (18%)
Title                            : DTS
Language                         : English

Audio #2
ID                               : 3
Format                           : AC-3
Format/Info                      : Audio Coding 3
Mode extension                   : CM (complete main)
Codec ID                         : A_AC3
Duration                         : 1h 20mn
Bit rate mode                    : Constant
Bit rate                         : 640 Kbps
Channel(s)                       : 6 channels
Channel positions                : Front: L C R, Side: L R, LFE
Sampling rate                    : 48.0 KHz
Bit depth                        : 16 bits
Stream size                      : 369 MiB (8%)
Title                            : AC3
Language                         : English

Audio #3
ID                               : 4
Format                           : AC-3
Format/Info                      : Audio Coding 3
Mode extension                   : CM (complete main)
Codec ID                         : A_AC3
Duration                         : 1h 20mn
Bit rate mode                    : Constant
Bit rate                         : 448 Kbps
Channel(s)                       : 6 channels
Channel positions                : Front: L C R, Side: L R, LFE
Sampling rate                    : 48.0 KHz
Bit depth                        : 16 bits
Stream size                      : 258 MiB (5%)
Title                            : AC3 Dutch
Language                         : Dutch

Text #1
ID                               : 5
Format                           : UTF-8
Codec ID                         : S_TEXT/UTF8
Codec ID/Info                    : UTF-8 Plain Text
Title                            : Subtitles
Language                         : Dutch

Text #2
ID                               : 6
Format                           : UTF-8
Codec ID                         : S_TEXT/UTF8
Codec ID/Info                    : UTF-8 Plain Text
Title                            : Subtitles
Language                         : English

Menu
00:00:00.000                     : en:Video Start
00:05:00.000                     : en:Chapter 1 - 00 Hr 05 Min
00:10:00.000                     : en:Chapter 2 - 00 Hr 10 Min
00:15:00.000                     : en:Chapter 3 - 00 Hr 15 Min
00:20:00.000                     : en:Chapter 4 - 00 Hr 20 Min
00:25:00.000                     : en:Chapter 5 - 00 Hr 25 Min
00:30:00.000                     : en:Chapter 6 - 00 Hr 30 Min
00:35:00.000                     : en:Chapter 7 - 00 Hr 35 Min
00:40:00.000                     : en:Chapter 8 - 00 Hr 40 Min
00:45:00.000                     : en:Chapter 9 - 00 Hr 45 Min
00:50:00.000                     : en:Chapter 10 - 00 Hr 50 Min
00:55:00.000                     : en:Chapter 11 - 00 Hr 55 Min
01:00:00.000                     : en:Chapter 12 - 01 Hr 00 Min
01:05:00.000                     : en:Chapter 13 - 01 Hr 05 Min
01:10:00.000                     : en:Chapter 14 - 01 Hr 10 Min
01:15:00.000                     : en:Chapter 15 - 01 Hr 15 Min
01:20:00.000                     : en:Chapter 16 - 01 Hr 20 Min


 
Genre : Avontuur
Animatie
 
Weblink :  http://www.moviemeter.nl/film/37888 
Weblink :  http://www.imdb.com/title/tt0482603     

*****************************************

Brought to you by 
2Lions Team

meer zien??
Kom dan eens kijken op ons Forum 
                   
http://www.2lions-site.nl  

2Lions the site to be for all your Dutch MOVIES and more

******************************************


DON T HIT AND RUN Niet gelijk afhaken als de FILM binnen is blijf seeden. 

Don`t quit after you finished the download, but keep seeding


There are fake torrents from uploaders who use our team name.
Those are not ours, or members from our team.
We 2Lions-Team are not responsible for the fake posts on our name

Wij 2Lions-Team zijn niet verantwoordelijk voor die zieke FAKE posten die op onze naam worden gedaan

Please check our site !!!
To the fakers Get a Live
			    
 
 
